M48
INCH,TZ
T1C0.008
T2C0.012
T3C0.013
T4C0.016
T5C0.028
T6C0.032
T7C0.040
T8C0.049
T9C0.075
T10C0.079
%
G90
G05
T1
X32756Y-32657
X33484Y-32657
X33779Y-25551
X33799Y-30590
X34035Y-33957
X34035Y-34232
X34035Y-34488
X34035Y-34744
X34035Y-35020
X34173Y-30590
X34311Y-32657
X34429Y-25984
X34429Y-26456
X34606Y-26220
X34606Y-26220
X34783Y-25984
X34783Y-26456
X34961Y-27716
X34961Y-30630
X35236Y-30630
X35413Y-29311
X35433Y-35000
X35551Y-25433
X35551Y-33937
X35590Y-30787
X35590Y-31102
X35590Y-34567
X35669Y-35000
X35768Y-29311
X35905Y-30787
X35905Y-31102
X35905Y-31732
X35905Y-32047
X35905Y-32677
X35905Y-32992
X35905Y-33622
X35905Y-33937
X35905Y-34252
X35905Y-34567
X35905Y-35000
X36043Y-29311
X36220Y-31417
X36220Y-31732
X36220Y-32047
X36220Y-32362
X36220Y-32677
X36220Y-32992
X36220Y-33307
X36220Y-33622
X36220Y-33937
X36220Y-34252
X36378Y-28819
X36378Y-29764
X36378Y-30118
X36378Y-30433
X36535Y-31102
X36535Y-31732
X36535Y-32047
X36535Y-32362
X36535Y-32677
X36535Y-33937
X36850Y-30787
X36850Y-31102
X36850Y-31732
X36850Y-34252
X36850Y-34567
X37008Y-34961
X37008Y-35276
X37126Y-30472
X37146Y-36732
X37146Y-36968
X37146Y-37205
X37165Y-30787
X37165Y-31102
X37165Y-31417
X37165Y-31732
X37165Y-32047
X37165Y-32362
X37165Y-32992
X37165Y-33307
X37165Y-33622
X37165Y-33937
X37165Y-34252
X37165Y-34567
X37480Y-31102
X37480Y-31417
X37480Y-31732
X37480Y-32047
X37480Y-32362
X37480Y-32992
X37480Y-33307
X37480Y-33622
X37480Y-33937
X37500Y-36732
X37500Y-36968
X37500Y-37205
X37638Y-37480
X37795Y-20630
X37913Y-19370
X37913Y-19646
X38110Y-31102
X38110Y-31417
X38110Y-31732
X38110Y-32047
X38110Y-32362
X38110Y-32677
X38110Y-33307
X38110Y-33622
X38110Y-33937
X38110Y-34252
X38425Y-31102
X38425Y-31417
X38425Y-31732
X38425Y-32047
X38425Y-32362
X38425Y-32677
X38425Y-33307
X38425Y-33622
X38425Y-33937
X38425Y-34252
X38425Y-34567
X38504Y-45039
X38543Y-34961
X38543Y-35276
X38543Y-46535
X38619Y-19468
X38619Y-20058
X38661Y-24606
X38740Y-30787
X38740Y-31102
X38740Y-31417
X38740Y-31732
X38740Y-32362
X38740Y-32677
X38740Y-33307
X38740Y-33622
X38740Y-33937
X38740Y-34252
X38740Y-43268
X38779Y-41968
X38816Y-19763
X38816Y-19763
X38819Y-30079
X38819Y-30394
X38976Y-23898
X39013Y-19468
X39013Y-20058
X39055Y-31102
X39055Y-31417
X39055Y-31732
X39055Y-32362
X39055Y-32677
X39055Y-32992
X39055Y-33622
X39055Y-33937
X39055Y-34252
X39134Y-45197
X39252Y-43150
X39291Y-44842
X39370Y-23898
X39370Y-31102
X39370Y-31732
X39370Y-32047
X39370Y-32677
X39370Y-33307
X39370Y-33622
X39370Y-33937
X39370Y-34252
X39488Y-41968
X39685Y-32047
X39685Y-33307
X39685Y-34567
X39685Y-44842
X39764Y-19646
X39803Y-25433
X39843Y-45197
X40020Y-34587
X40039Y-33386
X40079Y-31614
X40079Y-44842
X40118Y-26772
X40157Y-20315
X40157Y-23898
X40158Y-35787
X40197Y-41968
X40315Y-45197
X40354Y-33386
X40394Y-31614
X40433Y-41653
X40551Y-45197
X40669Y-41968
X40709Y-33189
X40709Y-44842
X40945Y-33189
X41102Y-44842
X41181Y-33189
X41260Y-45197
X41378Y-41968
X41417Y-33189
X41417Y-44842
X41614Y-33976
X41811Y-44842
X41850Y-33976
X41969Y-45197
X42087Y-33976
X42087Y-41968
X42126Y-24724
X42126Y-25354
X42205Y-44842
X42283Y-34527
X42441Y-45197
X42520Y-34527
X42559Y-41968
X42677Y-35787
X42677Y-45079
X42795Y-41968
X42913Y-44567
X42953Y-35787
X42992Y-34527
X43150Y-45197
X43268Y-41968
X43307Y-41653
X43307Y-44842
X43346Y-20472
X43622Y-20236
X43622Y-20709
X43622Y-20984
X43701Y-44842
X43819Y-35787
X43858Y-45197
X43976Y-41968
X44016Y-44842
X44094Y-35787
X44212Y-20236
X44212Y-20709
X44212Y-20984
X44291Y-19803
X44369Y-35787
X44409Y-22126
X44409Y-44842
X44567Y-45197
X44606Y-19685
X44606Y-19961
X44645Y-35787
X44646Y-36339
X44685Y-41968
X44803Y-44842
X44842Y-36772
X44921Y-41653
X45000Y-36339
X45039Y-45197
X45157Y-41968
X45276Y-45197
X45394Y-19842
X45394Y-20118
X45394Y-21102
X45433Y-44842
X45512Y-28150
X45590Y-18819
X45590Y-19685
X45590Y-20709
X45590Y-21260
X45590Y-22126
X45590Y-32087
X45590Y-36024
X45590Y-36457
X45590Y-36772
X45669Y-26378
X45669Y-26772
X45669Y-28740
X45669Y-30709
X45669Y-34252
X45787Y-20000
X45827Y-44842
X45866Y-41968
X45984Y-19685
X45984Y-45197
X46063Y-25984
X46063Y-26378
X46063Y-28740
X46063Y-29134
X46063Y-30709
X46063Y-33858
X46063Y-34252
X46063Y-36614
X46063Y-37008
X46142Y-44842
X46181Y-20157
X46181Y-23150
X46378Y-18465
X46378Y-19685
X46378Y-19961
X46457Y-26772
X46457Y-27165
X46457Y-28346
X46457Y-28740
X46457Y-29134
X46457Y-29527
X46457Y-29921
X46457Y-30315
X46457Y-30709
X46457Y-31102
X46457Y-31890
X46457Y-32677
X46457Y-33071
X46457Y-33465
X46457Y-33858
X46457Y-34252
X46457Y-34646
X46457Y-35039
X46457Y-35433
X46457Y-35827
X46457Y-36220
X46457Y-36614
X46535Y-44842
X46575Y-41968
X46693Y-45197
X46772Y-18465
X46772Y-18819
X46772Y-19685
X46772Y-20709
X46772Y-20984
X46772Y-21260
X46772Y-22126
X46850Y-26772
X46850Y-27165
X46850Y-28346
X46850Y-29527
X46850Y-29921
X46850Y-30315
X46850Y-30709
X46850Y-31102
X46850Y-31890
X46850Y-32283
X46850Y-32677
X46850Y-33071
X46850Y-33465
X46850Y-33858
X46850Y-35039
X46850Y-35433
X46850Y-35827
X46850Y-36220
X46850Y-36614
X46929Y-44842
X46968Y-19882
X46968Y-20158
X47047Y-41968
X47165Y-45197
X47244Y-25984
X47244Y-26378
X47244Y-26772
X47244Y-27165
X47244Y-29527
X47244Y-30709
X47244Y-31102
X47244Y-31890
X47244Y-32283
X47244Y-32677
X47244Y-33071
X47244Y-33465
X47244Y-34252
X47244Y-34646
X47244Y-35039
X47244Y-35433
X47244Y-35827
X47244Y-36220
X47244Y-36614
X47244Y-37008
X47283Y-41968
X47323Y-44842
X47362Y-20157
X47559Y-19685
X47559Y-19961
X47638Y-26772
X47638Y-27165
X47638Y-27559
X47638Y-27953
X47638Y-29527
X47638Y-30315
X47638Y-30709
X47638Y-31102
X47638Y-31890
X47638Y-32283
X47638Y-33465
X47638Y-33858
X47638Y-34252
X47638Y-34646
X47638Y-35039
X47638Y-35433
X47638Y-35827
X47638Y-36220
X47717Y-44842
X47874Y-45197
X47953Y-18465
X47953Y-18819
X47953Y-19685
X47953Y-20709
X47953Y-20984
X47953Y-21260
X47953Y-22126
X47992Y-41968
X48031Y-26772
X48031Y-27165
X48031Y-27559
X48031Y-27953
X48031Y-30709
X48031Y-31102
X48031Y-31890
X48031Y-33071
X48031Y-33465
X48031Y-34252
X48031Y-35039
X48031Y-35433
X48031Y-35827
X48031Y-36220
X48149Y-20157
X48150Y-19882
X48228Y-41614
X48346Y-46260
X48346Y-46575
X48425Y-26772
X48425Y-27165
X48425Y-27559
X48425Y-27953
X48425Y-28346
X48425Y-28740
X48425Y-29134
X48425Y-29527
X48425Y-29921
X48425Y-31102
X48425Y-31890
X48425Y-33465
X48425Y-33858
X48425Y-34252
X48425Y-35039
X48425Y-35433
X48425Y-35827
X48425Y-36220
X48464Y-42992
X48464Y-43307
X48543Y-20118
X48543Y-22126
X48583Y-44842
X48701Y-41614
X48740Y-18740
X48740Y-19685
X48819Y-25984
X48819Y-26378
X48819Y-26772
X48819Y-27165
X48819Y-27559
X48819Y-27953
X48819Y-28740
X48819Y-29134
X48819Y-29527
X48819Y-29921
X48819Y-30709
X48819Y-31102
X48819Y-31890
X48819Y-32677
X48819Y-33858
X48819Y-34252
X48819Y-34646
X48819Y-35039
X48819Y-35433
X48819Y-35827
X48819Y-36220
X48819Y-36614
X48819Y-37008
X48819Y-44842
X48937Y-19961
X48937Y-41614
X49055Y-46260
X49055Y-46575
X49134Y-18819
X49134Y-19685
X49134Y-20236
X49134Y-20709
X49134Y-20984
X49134Y-21260
X49134Y-22126
X49173Y-42992
X49173Y-43307
X49212Y-26772
X49212Y-27165
X49212Y-27559
X49212Y-27953
X49212Y-28346
X49212Y-28740
X49212Y-29134
X49212Y-29527
X49212Y-29921
X49212Y-30315
X49212Y-30709
X49212Y-31102
X49212Y-31890
X49212Y-32283
X49212Y-32677
X49212Y-33071
X49212Y-33858
X49212Y-34252
X49212Y-34646
X49212Y-35039
X49212Y-35433
X49212Y-35827
X49212Y-36220
X49291Y-44842
X49409Y-37126
X49409Y-41614
X49527Y-22441
X49527Y-22716
X49528Y-45197
X49606Y-26772
X49606Y-27165
X49606Y-27559
X49606Y-28740
X49606Y-29134
X49606Y-29527
X49606Y-29921
X49606Y-30315
X49606Y-30709
X49606Y-31102
X49606Y-31890
X49606Y-32283
X49606Y-32677
X49606Y-33071
X49606Y-33465
X49606Y-33858
X49606Y-34252
X49606Y-34646
X49606Y-35039
X49606Y-35433
X49606Y-35827
X49606Y-36220
X49646Y-41968
X49724Y-19685
X49764Y-44842
X49882Y-41614
X49921Y-19961
X50000Y-26378
X50000Y-26772
X50000Y-27165
X50000Y-27559
X50000Y-27953
X50000Y-28346
X50000Y-28740
X50000Y-29134
X50000Y-29527
X50000Y-29921
X50000Y-30315
X50000Y-30709
X50000Y-31102
X50000Y-31890
X50000Y-32283
X50000Y-32677
X50000Y-33071
X50000Y-33465
X50000Y-33858
X50000Y-34252
X50000Y-34646
X50000Y-35433
X50000Y-35827
X50000Y-36220
X50000Y-46260
X50000Y-46575
X50118Y-19685
X50118Y-42992
X50118Y-43307
X50236Y-44842
X50315Y-19961
X50315Y-20236
X50315Y-20709
X50354Y-22441
X50354Y-22716
X50354Y-22993
X50354Y-41614
X50394Y-25590
X50394Y-25984
X50394Y-26378
X50394Y-26772
X50394Y-27165
X50394Y-27559
X50394Y-27953
X50394Y-29134
X50394Y-29527
X50394Y-29921
X50394Y-30315
X50394Y-30709
X50394Y-31102
X50394Y-31890
X50394Y-32283
X50394Y-32677
X50394Y-33071
X50394Y-33465
X50394Y-34646
X50394Y-35039
X50394Y-35433
X50394Y-35827
X50394Y-36220
X50394Y-36614
X50394Y-37008
X50394Y-37323
X50472Y-45197
X50590Y-41968
X50709Y-44842
X50787Y-26772
X50787Y-27165
X50787Y-27559
X50787Y-28346
X50787Y-28740
X50787Y-29134
X50787Y-29527
X50787Y-29921
X50787Y-30315
X50787Y-30709
X50787Y-31102
X50787Y-31890
X50787Y-32283
X50787Y-32677
X50787Y-33071
X50787Y-33465
X50787Y-34252
X50787Y-35039
X50787Y-35433
X50787Y-35827
X50787Y-36220
X50787Y-36614
X50787Y-37008
X50827Y-41614
X50945Y-19961
X50945Y-20236
X50945Y-20709
X50945Y-20984
X50945Y-46260
X50945Y-46575
X51063Y-42992
X51063Y-43307
X51181Y-27165
X51181Y-44842
X51299Y-41614
X51417Y-45197
X51457Y-19961
X51457Y-20236
X51457Y-20709
X51457Y-20984
X51535Y-41968
X51575Y-27165
X51575Y-27559
X51575Y-27953
X51575Y-28346
X51575Y-28740
X51575Y-29134
X51575Y-29527
X51575Y-29921
X51575Y-30315
X51575Y-30709
X51575Y-31102
X51575Y-31890
X51575Y-32283
X51575Y-32677
X51575Y-33071
X51575Y-33465
X51575Y-33858
X51575Y-34252
X51575Y-34646
X51575Y-35039
X51575Y-35433
X51575Y-35827
X51575Y-36220
X51654Y-44842
X51772Y-41614
X51890Y-46260
X51890Y-46575
X51968Y-25984
X51968Y-26378
X51968Y-26772
X51968Y-27165
X51968Y-27559
X51968Y-27953
X51968Y-28346
X51968Y-28740
X51968Y-29134
X51968Y-29527
X51968Y-29921
X51968Y-30315
X51968Y-30709
X51968Y-31102
X51968Y-31890
X51968Y-32283
X51968Y-32677
X51968Y-33071
X51968Y-33465
X51968Y-33858
X51968Y-34252
X51968Y-34646
X51968Y-35039
X51968Y-35433
X51968Y-35827
X51968Y-36220
X51968Y-36614
X51968Y-37008
X52008Y-42992
X52008Y-43307
X52087Y-19961
X52087Y-20236
X52087Y-20709
X52087Y-20984
X52126Y-44842
X52244Y-41614
X52283Y-19685
X52283Y-22126
X52283Y-22402
X52283Y-22677
X52362Y-26772
X52362Y-27165
X52362Y-27559
X52362Y-27953
X52362Y-28346
X52362Y-28740
X52362Y-29134
X52362Y-29527
X52362Y-29921
X52362Y-30315
X52362Y-30709
X52362Y-31102
X52362Y-31890
X52362Y-32283
X52362Y-32677
X52362Y-33071
X52362Y-33465
X52362Y-33858
X52362Y-34252
X52362Y-34646
X52362Y-35039
X52362Y-35433
X52362Y-35827
X52362Y-36220
X52362Y-39016
X52362Y-44842
X52598Y-46260
X52598Y-46575
X52677Y-19685
X52677Y-19961
X52716Y-42992
X52716Y-43307
X52756Y-27165
X52756Y-27559
X52756Y-27953
X52756Y-28346
X52756Y-28740
X52756Y-29134
X52756Y-29527
X52756Y-29921
X52756Y-30315
X52756Y-30709
X52756Y-31102
X52756Y-31890
X52756Y-32283
X52756Y-32677
X52756Y-33071
X52756Y-33465
X52756Y-33858
X52756Y-34252
X52756Y-34646
X52756Y-35039
X52756Y-35433
X52756Y-35827
X52756Y-36220
X52835Y-44842
X52874Y-20197
X52874Y-23858
X52953Y-41614
X53071Y-19685
X53071Y-23465
X53071Y-45197
X53150Y-26772
X53150Y-27165
X53150Y-27559
X53150Y-27953
X53150Y-28346
X53150Y-28740
X53150Y-29527
X53150Y-29921
X53150Y-30315
X53150Y-30709
X53150Y-31102
X53150Y-31890
X53150Y-32283
X53150Y-32677
X53150Y-33071
X53150Y-33465
X53150Y-35433
X53150Y-35827
X53150Y-36220
X53150Y-36614
X53150Y-37008
X53189Y-41968
X53228Y-44842
X53268Y-20000
X53268Y-23150
X53464Y-18819
X53464Y-19685
X53464Y-20236
X53464Y-20709
X53464Y-20984
X53464Y-21260
X53464Y-22126
X53543Y-25984
X53543Y-26378
X53543Y-26772
X53543Y-27165
X53543Y-27559
X53543Y-27953
X53543Y-28346
X53543Y-28740
X53543Y-29134
X53543Y-29527
X53543Y-29921
X53543Y-30315
X53543Y-30709
X53543Y-31102
X53543Y-31496
X53543Y-31890
X53543Y-32283
X53543Y-32677
X53543Y-33858
X53543Y-34252
X53543Y-34646
X53543Y-35039
X53543Y-35433
X53543Y-35827
X53543Y-36220
X53543Y-36614
X53543Y-37008
X53622Y-44842
X53661Y-20000
X53780Y-45197
X53858Y-19685
X53858Y-22559
X53858Y-22835
X53898Y-41968
X53937Y-26772
X53937Y-27165
X53937Y-27559
X53937Y-27953
X53937Y-28346
X53937Y-28740
X53937Y-29134
X53937Y-29527
X53937Y-29921
X53937Y-30315
X53937Y-30709
X53937Y-31102
X53937Y-32283
X53937Y-32677
X53937Y-33858
X53937Y-34252
X53937Y-35827
X53937Y-36220
X54016Y-44842
X54055Y-20000
X54055Y-22126
X54252Y-18465
X54252Y-19685
X54252Y-45197
X54331Y-26772
X54331Y-27165
X54331Y-27559
X54331Y-27953
X54331Y-28346
X54331Y-28740
X54331Y-29527
X54331Y-29921
X54331Y-30315
X54331Y-30709
X54331Y-31102
X54331Y-32283
X54331Y-32677
X54331Y-33071
X54331Y-34252
X54331Y-34646
X54331Y-35433
X54331Y-35827
X54331Y-36220
X54370Y-41653
X54449Y-20000
X54488Y-45197
X54527Y-37205
X54527Y-37520
X54606Y-41968
X54646Y-18465
X54646Y-18819
X54646Y-19685
X54646Y-20236
X54646Y-20709
X54646Y-20984
X54646Y-21260
X54646Y-22126
X54646Y-44842
X54724Y-26772
X54724Y-27165
X54724Y-27559
X54724Y-27953
X54724Y-28346
X54724Y-28740
X54724Y-29134
X54724Y-29527
X54724Y-29921
X54724Y-30315
X54724Y-30709
X54724Y-31102
X54724Y-32283
X54724Y-32677
X54724Y-33071
X54724Y-33465
X54724Y-34252
X54724Y-34646
X54724Y-35039
X54724Y-35433
X54724Y-36220
X54724Y-36614
X54724Y-37008
X54842Y-20000
X55039Y-19685
X55039Y-44842
X55118Y-25984
X55118Y-26378
X55118Y-26772
X55118Y-27165
X55118Y-27559
X55118Y-27953
X55118Y-28346
X55118Y-28740
X55118Y-29134
X55118Y-29527
X55118Y-29921
X55118Y-30315
X55118Y-30709
X55118Y-31102
X55118Y-31890
X55118Y-32283
X55118Y-32677
X55118Y-33071
X55118Y-33465
X55118Y-33858
X55118Y-34252
X55118Y-34646
X55118Y-35827
X55118Y-36220
X55118Y-36614
X55118Y-37008
X55197Y-45197
X55236Y-20001
X55236Y-22126
X55315Y-41968
X55354Y-44842
X55433Y-19685
X55512Y-26772
X55512Y-27165
X55512Y-27559
X55512Y-27953
X55512Y-28346
X55512Y-28740
X55512Y-29134
X55512Y-29527
X55512Y-29921
X55512Y-30315
X55512Y-30709
X55512Y-32283
X55512Y-33071
X55512Y-35827
X55512Y-36220
X55630Y-20000
X55748Y-44842
X55827Y-18465
X55827Y-18819
X55827Y-19685
X55827Y-20236
X55827Y-20709
X55827Y-20984
X55827Y-21260
X55827Y-22126
X55905Y-26772
X55905Y-27165
X55905Y-27559
X55905Y-27953
X55905Y-28346
X55905Y-28740
X55905Y-29134
X55905Y-29527
X55905Y-29921
X55905Y-32677
X55905Y-33465
X55905Y-33858
X55905Y-34646
X55905Y-35433
X55905Y-36220
X55906Y-45197
X56024Y-20000
X56024Y-41968
X56142Y-44842
X56220Y-19685
X56260Y-41653
X56299Y-25984
X56299Y-26378
X56299Y-28740
X56299Y-30709
X56299Y-32283
X56299Y-32677
X56299Y-33858
X56299Y-34252
X56299Y-34646
X56299Y-36220
X56299Y-36614
X56299Y-37008
X56417Y-20000
X56496Y-41968
X56614Y-19685
X56614Y-45197
X56693Y-18740
X56693Y-26378
X56693Y-26772
X56693Y-28740
X56693Y-30709
X56693Y-32283
X56693Y-33858
X56693Y-34252
X56693Y-34646
X56693Y-35827
X56693Y-36220
X56693Y-36614
X56732Y-41968
X56772Y-44842
X56811Y-20000
X57008Y-18819
X57008Y-19685
X57008Y-20236
X57008Y-20709
X57008Y-20984
X57008Y-21260
X57008Y-22126
X57165Y-44842
X57205Y-20000
X57323Y-45197
X57401Y-19685
X57441Y-18465
X57441Y-41968
X57598Y-20000
X57795Y-19685
X57953Y-31142
X57953Y-31457
X57953Y-31890
X57992Y-20000
X58189Y-20236
X58189Y-20709
X58189Y-20984
X58346Y-18504
X58346Y-18976
X58425Y-30630
X58819Y-19961
X58819Y-20236
X58819Y-20709
X58819Y-20984
X58937Y-30000
X58937Y-30315
X58937Y-30630
X58937Y-30905
X58976Y-45197
X59094Y-41968
X59134Y-44842
X59331Y-19961
X59331Y-20236
X59331Y-20709
X59331Y-20984
X59488Y-29370
X59527Y-31535
X59527Y-31929
X59528Y-44842
X59606Y-18819
X59685Y-45197
X59764Y-18465
X59803Y-41968
X59921Y-44842
X59961Y-20236
X59961Y-20709
X60039Y-41614
X60157Y-18504
X60157Y-18779
X60157Y-19685
X60157Y-22480
X60157Y-29724
X60157Y-44842
X60275Y-41968
X60354Y-20000
X60354Y-22283
X60394Y-45197
X60512Y-41968
X60551Y-19685
X60551Y-22126
X60630Y-44842
X60669Y-30354
X60669Y-30590
X60669Y-31063
X60669Y-31299
X60748Y-20000
X60748Y-22480
X60866Y-45197
X60945Y-19685
X60945Y-22126
X61024Y-44842
X61142Y-20000
X61142Y-22480
X61220Y-41968
X61259Y-32638
X61259Y-33268
X61338Y-18504
X61338Y-18819
X61338Y-19685
X61338Y-20236
X61338Y-20709
X61338Y-21260
X61338Y-22126
X61378Y-32953
X61417Y-44842
X61535Y-20000
X61535Y-35276
X61575Y-45197
X61732Y-19685
X61732Y-44842
X61810Y-32638
X61810Y-33268
X61929Y-20000
X61929Y-41968
X62126Y-19685
X62126Y-44842
X62165Y-41614
X62205Y-18779
X62283Y-45197
X62323Y-20000
X62401Y-41968
X62519Y-32757
X62519Y-33150
X62520Y-18819
X62520Y-19685
X62520Y-20236
X62520Y-20709
X62520Y-21260
X62520Y-22126
X62520Y-44842
X62559Y-33661
X62638Y-41968
X62716Y-20000
X62756Y-45197
X62795Y-31850
X62913Y-19685
X62913Y-44842
X62992Y-18150
X62992Y-36299
X63110Y-20000
X63110Y-30827
X63110Y-34094
X63110Y-35748
X63150Y-28976
X63268Y-36378
X63307Y-19685
X63307Y-44842
X63346Y-41968
X63386Y-31181
X63386Y-31575
X63425Y-32441
X63465Y-45197
X63504Y-20000
X63543Y-30039
X63583Y-43031
X63583Y-43346
X63701Y-18504
X63701Y-18819
X63701Y-19685
X63701Y-20236
X63701Y-20709
X63701Y-21260
X63701Y-22126
X63779Y-28740
X63819Y-30039
X63898Y-20000
X63976Y-33110
X64016Y-36575
X64016Y-36890
X64055Y-25197
X64055Y-25512
X64094Y-19685
X64094Y-30039
X64094Y-30433
X64094Y-30709
X64094Y-31575
X64172Y-34626
X64173Y-32716
X64173Y-35216
X64212Y-33937
X64291Y-20000
X64331Y-24921
X64370Y-30039
X64370Y-32480
X64488Y-19685
X64488Y-35512
X64527Y-34527
X64567Y-32244
X64567Y-36024
X64646Y-27480
X64646Y-30039
X64685Y-20000
X64685Y-37126
X64724Y-28898
X64724Y-31220
X64724Y-35276
X64764Y-29606
X64764Y-30512
X64764Y-32480
X64882Y-18504
X64882Y-18819
X64882Y-19685
X64882Y-20236
X64882Y-20709
X64882Y-21260
X64882Y-22126
X64882Y-24331
X64882Y-24685
X64961Y-32638
X64961Y-36024
X65000Y-19961
X65000Y-22362
X65039Y-34646
X65059Y-33740
X65157Y-31811
X65354Y-19961
X65354Y-22362
X65472Y-21260
X65650Y-33740
X65669Y-28898
X65669Y-29134
X65669Y-29606
X65669Y-29842
X65669Y-30276
X65669Y-30512
X65669Y-30984
X65669Y-31220
X65748Y-37559
X65787Y-32756
X65827Y-23110
X65827Y-23465
X65827Y-24055
X65827Y-24449
X65866Y-47362
X65945Y-25197
X65945Y-25590
X66063Y-20236
X66063Y-20709
X66102Y-31811
X66102Y-40354
X66181Y-48031
X66220Y-19803
X66378Y-32598
X66378Y-37205
X66417Y-47756
X66457Y-22520
X66457Y-22835
X66496Y-35079
X66496Y-35945
X66496Y-38386
X66575Y-25827
X66614Y-32716
X66693Y-20236
X66693Y-20709
X66693Y-28543
X66693Y-28937
X66693Y-30236
X66693Y-36575
X66850Y-24882
X66850Y-25197
X66850Y-27598
X66850Y-37441
X66851Y-23858
X67008Y-27835
X67008Y-29646
X67008Y-33622
X67008Y-36299
X67047Y-22795
X67087Y-36693
X67126Y-25827
X67321Y-47756
X67321Y-48150
X67401Y-24626
X67401Y-24980
X67518Y-47953
X67518Y-47953
X67520Y-33898
X67559Y-34173
X67598Y-25354
X67598Y-31929
X67598Y-35354
X67715Y-47756
X67715Y-48150
X67716Y-35984
X67835Y-27598
X67835Y-35472
X67913Y-23858
X67914Y-23465
X67953Y-34961
X68111Y-23661
X68189Y-21024
X68307Y-39960
X68327Y-22047
X68346Y-34331
X68346Y-34764
X68425Y-23346
X68425Y-24961
X68464Y-25354
X68583Y-28346
X68583Y-28779
X68583Y-29213
X68583Y-29646
X68583Y-30079
X68583Y-30945
X68583Y-31378
X68622Y-22047
X68740Y-27598
X68898Y-22047
X68898Y-22441
X68898Y-22716
X68976Y-24882
X69016Y-36260
X69055Y-34016
X69173Y-22047
X69272Y-21102
X69291Y-48504
X69409Y-45709
X69449Y-22047
X69527Y-20905
X69567Y-21535
X69567Y-23071
X69567Y-27382
X69567Y-28346
X69567Y-28779
X69567Y-29213
X69567Y-29646
X69567Y-30079
X69567Y-30512
X69567Y-30945
X69567Y-31378
X69567Y-31850
X70000Y-20512
X70000Y-24252
X70315Y-35119
X70315Y-35592
T2
X66457Y-23464
X66457Y-23858
X66457Y-24252
X66851Y-23464
X66851Y-23858
X66851Y-24252
X67245Y-23464
X67245Y-23858
X67245Y-24252
T3
X40984Y-24744
X40984Y-25334
X41181Y-25039
X41378Y-24744
X41378Y-25334
T4
X32087Y-48425
X32087Y-49213
X32087Y-50000
X32087Y-50787
X32087Y-51575
X32087Y-52362
X32087Y-53150
X32480Y-48819
X32480Y-49606
X32480Y-50394
X32480Y-51181
X32480Y-51968
X32480Y-52756
X32480Y-53543
X32874Y-48425
X32874Y-49213
X32874Y-50000
X32874Y-50787
X32874Y-51575
X32874Y-52362
X32874Y-53150
X33031Y-30827
X33031Y-31457
X33268Y-26102
X33268Y-26890
X33268Y-27677
X33268Y-48819
X33268Y-49606
X33268Y-50394
X33268Y-51181
X33268Y-51968
X33268Y-52756
X33268Y-53543
X33346Y-31142
X33661Y-27283
X33661Y-31457
X33661Y-48425
X33661Y-49213
X33661Y-50000
X33661Y-50787
X33661Y-51575
X33661Y-52362
X33661Y-53150
X34055Y-26890
X34055Y-27677
X34370Y-17913
X34370Y-18425
X35118Y-17913
X35866Y-17913
X35866Y-18425
X36024Y-26772
X36811Y-26988
X37913Y-25157
X37913Y-25551
X37913Y-26102
X37913Y-26496
X38307Y-25157
X38307Y-25551
X38307Y-26102
X38307Y-26496
X39409Y-20394
X39842Y-18661
X39842Y-20630
X40079Y-19646
X40147Y-18966
X40157Y-20000
X40433Y-46417
X40512Y-20000
X40748Y-22992
X40748Y-27087
X41181Y-22992
X41181Y-27087
X41338Y-43110
X41614Y-46417
X41929Y-22992
X41929Y-27087
X42165Y-25039
X42362Y-22992
X42362Y-27087
X42795Y-22992
X42795Y-27087
X42795Y-46417
X43268Y-43110
X44212Y-46417
X44685Y-43110
X45630Y-46417
X45866Y-43110
X46929Y-46417
X47165Y-43110
X47756Y-46417
X49409Y-46417
X49646Y-43110
X50472Y-46417
X51535Y-46417
X53425Y-46417
X54016Y-43110
X54370Y-46417
X55433Y-43110
X55551Y-46417
X56614Y-43110
X56614Y-46417
X59685Y-46417
X59842Y-43110
X60512Y-43110
X60630Y-46417
X61575Y-46417
X61929Y-43110
X62520Y-46417
X62638Y-43110
X63464Y-46417
X65354Y-26968
X65354Y-27835
X65748Y-49370
X65748Y-50039
X65748Y-50709
X66220Y-18661
X66417Y-48701
X66417Y-49370
X66417Y-50039
X66417Y-50709
X66732Y-18661
X67047Y-41299
X67047Y-42087
X67244Y-18661
X67756Y-18661
X68464Y-39331
X68622Y-49370
X68622Y-50039
X69291Y-49370
X69291Y-50039
X69921Y-49370
X69921Y-50039
X69961Y-43228
X69961Y-43701
X69961Y-44173
X69961Y-44646
X69961Y-47008
X69961Y-47520
X69961Y-47992
X70433Y-43228
X70433Y-43701
X70433Y-44173
X70433Y-44646
X70433Y-47008
X70433Y-47520
X70433Y-47992
T5
X69027Y-39098
X69027Y-41058
T6
X42994Y-20271
X67282Y-20271
X70197Y-38995
X70197Y-41161
T7
X66481Y-51696
X66481Y-52696
X66481Y-53696
X66481Y-54696
X66481Y-55696
X67481Y-51696
X67481Y-52696
X67481Y-53696
X67481Y-54696
X67481Y-55696
T8
X32067Y-28603
X32067Y-33544
T9
X41622Y-20472
X68654Y-20472
T10
X34528Y-22441
X35709Y-24291
X36890Y-22441
T0
M30
